# xmcd
#
# Track frame offsets: 
#        150
#        32098
#        52812
#        69735
#        95080
#        110216
#        139882
#        159751
#        178560
#        201654
#        233807
#        248355
#        267466
#
# Disc length: 3732 seconds
#
# Revision: 0
# Processed by: cddbd v1.5.1PL2 Copyright (c) Steve Scherf et al.
# Submitted via: ExactAudioCopy v0.90b4
#
DISCID=b90e920d
DTITLE=Phil Bee and the Buzztones - It's Alright
DYEAR=2006
DGENRE=Blues
TTITLE0=My Heart Is Burning
TTITLE1=I Believe
TTITLE2=It's Alright
TTITLE3=Pretty Face Smile
TTITLE4=Buzzin' - Thanks Albert
TTITLE5=You'd Better Watch Out
TTITLE6=I'm Gonna Make Her Mine
TTITLE7=Got Me Movin'
TTITLE8=You Tell Me
TTITLE9=Sitting Here Wonderin'
TTITLE10=House Of Blues
TTITLE11=Fast Train
TTITLE12=Better Day
EXTD=
EXTT0=
EXTT1=
EXTT2=
EXTT3=
EXTT4=
EXTT5=
EXTT6=
EXTT7=
EXTT8=
EXTT9=
EXTT10=
EXTT11=
EXTT12=
PLAYORDER=
